<svg width="17" height="15" viewBox="0 0 17 15" fill="none" xmlns="http://www.w3.org/2000/svg">
<path d="M7.5 15C6.4625 15 5.4875 14.8031 4.575 14.4094C3.6625 14.0156 2.86875 13.4812 2.19375 12.8062C1.51875 12.1312 0.984375 11.3375 0.590625 10.425C0.196875 9.5125 0 8.5375 0 7.5C0 6.4625 0.196875 5.4875 0.590625 4.575C0.984375 3.6625 1.51875 2.86875 2.19375 2.19375C2.86875 1.51875 3.6625 0.984375 4.575 0.590625C5.4875 0.196875 6.4625 0 7.5 0C8.3125 0 9.08125 0.11875 9.80625 0.35625C10.5312 0.59375 11.2 0.925 11.8125 1.35L10.725 2.45625C10.25 2.15625 9.74375 1.92187 9.20625 1.75312C8.66875 1.58437 8.1 1.5 7.5 1.5C5.8375 1.5 4.42188 2.08437 3.25312 3.25312C2.08437 4.42188 1.5 5.8375 1.5 7.5C1.5 9.1625 2.08437 10.5781 3.25312 11.7469C4.42188 12.9156 5.8375 13.5 7.5 13.5C7.9 13.5 8.2875 13.4625 8.6625 13.3875C9.0375 13.3125 9.4 13.2063 9.75 13.0688L10.875 14.2125C10.3625 14.4625 9.825 14.6562 9.2625 14.7937C8.7 14.9312 8.1125 15 7.5 15V15M12.75 13.5V11.25H10.5V9.75H12.75V7.5H14.25V9.75H16.5V11.25H14.25V13.5H12.75V13.5M6.45 10.95L3.2625 7.7625L4.3125 6.7125L6.45 8.85L13.95 1.33125L15 2.38125L6.45 10.95V10.95" fill="white"/>
</svg>
