<svg width="120" height="120" viewBox="0 0 120 120" fill="none" xmlns="http://www.w3.org/2000/svg">
<g filter="url(#filter0_f_138_64)">
<rect x="24" y="24" width="72" height="72" rx="12" fill="currentColor" fill-opacity="0.05"/>
</g>
<path d="M48.25 91L47.5 84.4L56.05 60.85C56.8 61.55 57.6125 62.1375 58.4875 62.6125C59.3625 63.0875 60.3 63.45 61.3 63.7L53.05 86.35L48.25 91V91M79.75 91L74.95 86.35L66.7 63.7C67.7 63.45 68.6375 63.0875 69.5125 62.6125C70.3875 62.1375 71.2 61.55 71.95 60.85L80.5 84.4L79.75 91V91M64 61C61.5 61 59.375 60.125 57.625 58.375C55.875 56.625 55 54.5 55 52C55 50.05 55.5625 48.3125 56.6875 46.7875C57.8125 45.2625 59.25 44.2 61 43.6V37H67V43.6C68.75 44.2 70.1875 45.2625 71.3125 46.7875C72.4375 48.3125 73 50.05 73 52C73 54.5 72.125 56.625 70.375 58.375C68.625 60.125 66.5 61 64 61V61M64 55C64.85 55 65.5625 54.7125 66.1375 54.1375C66.7125 53.5625 67 52.85 67 52C67 51.15 66.7125 50.4375 66.1375 49.8625C65.5625 49.2875 64.85 49 64 49C63.15 49 62.4375 49.2875 61.8625 49.8625C61.2875 50.4375 61 51.15 61 52C61 52.85 61.2875 53.5625 61.8625 54.1375C62.4375 54.7125 63.15 55 64 55V55" fill="currentColor" fill-opacity="0.2"/>
<path d="M53.6 57.9L57.9 53.55L55.1 50.7L52.9 52.9L50.1 50.1L52.25 47.9L50 45.65L45.65 50L53.6 57.9V57.9M70 74.35L74.35 70L72.1 67.75L69.9 69.9L67.1 67.1L69.25 64.9L66.4 62.1L62.1 66.4L70 74.35V74.35M71.2 46L74.05 48.85V48.85L71.2 46V46V46M50.5 78H42V69.5L50.75 60.75L40 50L50 40L60.8 50.8L68.35 43.2C68.75 42.8 69.2 42.5 69.7 42.3C70.2 42.1 70.7167 42 71.25 42C71.7833 42 72.3 42.1 72.8 42.3C73.3 42.5 73.75 42.8 74.15 43.2L76.8 45.9C77.2 46.3 77.5 46.75 77.7 47.25C77.9 47.75 78 48.2667 78 48.8C78 49.3333 77.9 49.8417 77.7 50.325C77.5 50.8083 77.2 51.25 76.8 51.65L69.25 59.25L80 70L70 80L59.25 69.25L50.5 78V78M46 74H48.8L68.4 54.45L65.55 51.6L46 71.2V74V74M67 53.05L65.55 51.6V51.6L68.4 54.45V54.45L67 53.05V53.05" fill="currentColor"/>
<defs>
<filter id="filter0_f_138_64" x="0" y="0" width="120" height="120" filterUnits="userSpaceOnUse" color-interpolation-filters="sRGB">
<feFlood flood-opacity="0" result="BackgroundImageFix"/>
<feBlend mode="normal" in="SourceGraphic" in2="BackgroundImageFix" result="shape"/>
<feGaussianBlur stdDeviation="12" result="effect1_foregroundBlur_138_64"/>
</filter>
</defs>
</svg>
