<svg width="12" height="10" viewBox="0 0 12 10" fill="none" xmlns="http://www.w3.org/2000/svg">
<path d="M4.08333 8.16667H10.5V8.16667V8.16667V6.60625H4.08333V8.16667V8.16667M1.16667 2.72708H2.91667V1.16667H1.16667V1.16667V1.16667V2.72708V2.72708M1.16667 5.45417H2.91667V3.89375H1.16667V5.45417V5.45417M1.16667 8.16667H2.91667V6.60625H1.16667V8.16667V8.16667V8.16667V8.16667M4.08333 5.45417H10.5V3.89375H4.08333V5.45417V5.45417M4.08333 2.72708H10.5V1.16667V1.16667V1.16667H4.08333V2.72708V2.72708M1.16667 9.33333C0.845833 9.33333 0.571181 9.2191 0.342708 8.99063C0.114236 8.76215 0 8.4875 0 8.16667V1.16667C0 0.845833 0.114236 0.571181 0.342708 0.342708C0.571181 0.114236 0.845833 0 1.16667 0H10.5C10.8208 0 11.0955 0.114236 11.324 0.342708C11.5524 0.571181 11.6667 0.845833 11.6667 1.16667V8.16667C11.6667 8.4875 11.5524 8.76215 11.324 8.99063C11.0955 9.2191 10.8208 9.33333 10.5 9.33333H1.16667V9.33333" fill="currentColor"/>
</svg>
